<svg width="1210" height="213" viewBox="0 0 1210 213" fill="none" xmlns="http://www.w3.org/2000/svg">
<path d="M135.331 0C142.805 0.00024221 148.863 6.05925 148.863 13.5332V63.7363H215.331C222.805 63.7366 228.863 69.7956 228.863 77.2695V199.067C228.863 206.541 222.805 212.599 215.331 212.6H93.5332C86.0593 212.6 80.0002 206.541 80 199.067V148.863H13.5332C6.05925 148.863 0.000243414 142.805 0 135.331V13.5332C0 6.0591 6.0591 0 13.5332 0H135.331Z" fill="white"/>
<path d="M277.992 138V48.24H304.392C313.016 48.24 319.352 50.352 323.4 54.576C327.536 58.712 329.604 64.3 329.604 71.34V74.244C329.604 78.116 328.724 81.548 326.964 84.54C325.204 87.532 322.652 89.908 319.308 91.668C323.972 93.164 327.492 95.628 329.868 99.06C332.332 102.404 333.564 106.452 333.564 111.204V114.108C333.564 121.324 331.452 127.132 327.228 131.532C323.092 135.844 316.58 138 307.692 138H277.992ZM304.392 58.8H289.476V87.18H304.392C308.792 87.18 312.092 86.08 314.292 83.88C316.58 81.592 317.724 78.468 317.724 74.508V71.34C317.724 67.468 316.58 64.432 314.292 62.232C312.092 59.944 308.792 58.8 304.392 58.8ZM307.692 97.74H289.476V127.572H307.692C312.356 127.572 315.832 126.384 318.12 124.008C320.496 121.632 321.684 118.332 321.684 114.108V110.94C321.684 106.892 320.496 103.68 318.12 101.304C315.832 98.928 312.356 97.74 307.692 97.74ZM352.699 122.16V40.32H363.523V121.632C363.523 124.008 363.875 125.812 364.579 127.044C365.371 128.188 366.911 128.76 369.199 128.76H371.311V138.66H368.275C362.467 138.66 358.419 137.12 356.131 134.04C353.843 130.96 352.699 127 352.699 122.16ZM427.896 138V128.76C423.32 132.72 419.228 135.492 415.62 137.076C412.012 138.572 408.404 139.32 404.796 139.32C398.988 139.32 394.544 137.428 391.464 133.644C388.384 129.772 386.844 124.36 386.844 117.408V72.66H397.668V115.824C397.668 120.4 398.46 123.788 400.044 125.988C401.716 128.1 404.18 129.156 407.436 129.156C409.9 129.156 412.672 128.54 415.752 127.308C418.832 126.076 422.66 123.612 427.236 119.916V72.66H438.06V138H427.896ZM508.758 134.172C504.798 136.108 500.838 137.428 496.878 138.132C492.918 138.924 489.266 139.32 485.922 139.32C476.506 139.32 469.466 136.636 464.802 131.268C460.226 125.9 457.938 118.552 457.938 109.224V101.304C457.938 92.24 460.226 84.98 464.802 79.524C469.466 74.068 476.022 71.34 484.47 71.34C488.958 71.34 493.05 72.264 496.746 74.112C500.53 75.872 503.522 78.6 505.722 82.296C508.01 85.904 509.154 90.568 509.154 96.288C509.154 99.984 508.626 104.208 507.57 108.96H468.63V109.224C468.63 115.912 469.994 120.972 472.722 124.404C475.538 127.836 480.026 129.552 486.186 129.552C489.002 129.552 492.082 129.2 495.426 128.496C498.858 127.792 502.202 126.692 505.458 125.196L508.758 134.172ZM484.47 80.844C479.366 80.844 475.494 82.516 472.854 85.86C470.302 89.116 468.894 93.736 468.63 99.72H498.198C498.462 98.136 498.594 96.64 498.594 95.232C498.594 90.304 497.186 86.696 494.37 84.408C491.642 82.032 488.342 80.844 484.47 80.844ZM530.262 138V48.24H556.662C565.286 48.24 571.622 50.352 575.67 54.576C579.806 58.712 581.874 64.3 581.874 71.34V74.244C581.874 78.116 580.994 81.548 579.234 84.54C577.474 87.532 574.922 89.908 571.578 91.668C576.242 93.164 579.762 95.628 582.138 99.06C584.602 102.404 585.834 106.452 585.834 111.204V114.108C585.834 121.324 583.722 127.132 579.498 131.532C575.362 135.844 568.85 138 559.962 138H530.262ZM556.662 58.8H541.746V87.18H556.662C561.062 87.18 564.362 86.08 566.562 83.88C568.85 81.592 569.994 78.468 569.994 74.508V71.34C569.994 67.468 568.85 64.432 566.562 62.232C564.362 59.944 561.062 58.8 556.662 58.8ZM559.962 97.74H541.746V127.572H559.962C564.626 127.572 568.102 126.384 570.39 124.008C572.766 121.632 573.954 118.332 573.954 114.108V110.94C573.954 106.892 572.766 103.68 570.39 101.304C568.102 98.928 564.626 97.74 559.962 97.74ZM645.36 138V128.76C640.784 132.72 636.692 135.492 633.084 137.076C629.476 138.572 625.868 139.32 622.26 139.32C616.452 139.32 612.008 137.428 608.928 133.644C605.848 129.772 604.308 124.36 604.308 117.408V72.66H615.132V115.824C615.132 120.4 615.924 123.788 617.508 125.988C619.18 128.1 621.644 129.156 624.9 129.156C627.364 129.156 630.136 128.54 633.216 127.308C636.296 126.076 640.124 123.612 644.7 119.916V72.66H655.524V138H645.36ZM690.319 56.688H678.175V44.544H690.319V56.688ZM689.659 138H678.835V72.66H689.659V138ZM712.863 122.16V40.32H723.687V121.632C723.687 124.008 724.039 125.812 724.743 127.044C725.535 128.188 727.075 128.76 729.363 128.76H731.475V138.66H728.439C722.631 138.66 718.583 137.12 716.295 134.04C714.007 130.96 712.863 127 712.863 122.16ZM787.532 138V128.892C783.484 132.764 779.788 135.492 776.444 137.076C773.188 138.572 769.8 139.32 766.28 139.32C759.328 139.32 753.96 136.68 750.176 131.4C746.48 126.12 744.632 118.728 744.632 109.224V101.568C744.632 92.328 746.92 84.98 751.496 79.524C756.16 74.068 762.892 71.34 771.692 71.34C774.244 71.34 776.796 71.604 779.348 72.132C781.9 72.66 784.452 73.408 787.004 74.376V40.32H797.828V138H787.532ZM755.852 109.224C755.852 116.088 756.908 121.148 759.02 124.404C761.22 127.572 764.476 129.156 768.788 129.156C771.34 129.156 773.98 128.54 776.708 127.308C779.436 125.988 782.868 123.304 787.004 119.256V84.408C784.452 83.264 781.988 82.472 779.612 82.032C777.236 81.504 774.904 81.24 772.616 81.24C766.632 81.24 762.32 83.044 759.68 86.652C757.128 90.26 755.852 95.232 755.852 101.568V109.224ZM852.269 138V48.24H880.121C890.417 48.24 898.337 51.364 903.881 57.612C909.425 63.772 912.197 72.308 912.197 83.22V102.888C912.197 113.888 909.425 122.512 903.881 128.76C898.337 134.92 890.417 138 880.121 138H852.269ZM879.857 59.064H863.753V127.308H879.857C893.497 127.308 900.317 119.168 900.317 102.888V83.22C900.317 67.116 893.497 59.064 879.857 59.064ZM945.424 56.688H933.28V44.544H945.424V56.688ZM944.764 138H933.94V72.66H944.764V138ZM1020.37 146.184C1020.37 152.608 1017.73 157.756 1012.45 161.628C1007.26 165.5 1000.09 167.436 990.936 167.436C986.36 167.436 981.564 166.82 976.548 165.588C971.62 164.356 966.956 162.376 962.556 159.648L966.252 151.2C970.652 153.664 974.876 155.38 978.924 156.348C983.06 157.404 987.064 157.932 990.936 157.932C996.92 157.932 1001.54 156.964 1004.8 155.028C1008.05 153.092 1009.68 150.496 1009.68 147.24C1009.68 144.864 1008.89 143.016 1007.3 141.696C1005.72 140.464 1003.17 139.848 999.648 139.848H984.468C978.748 139.848 974.612 138.484 972.06 135.756C969.508 133.028 968.232 130.036 968.232 126.78C968.232 124.492 968.76 122.248 969.816 120.048C970.872 117.76 972.368 115.516 974.304 113.316C971.224 111.468 968.76 108.96 966.912 105.792C965.064 102.536 964.14 98.62 964.14 94.044C964.14 89.028 965.196 84.848 967.308 81.504C969.508 78.16 972.412 75.652 976.02 73.98C979.628 72.22 983.676 71.34 988.164 71.34H990.408C993.488 71.34 996.304 71.78 998.856 72.66H1022.35V82.296L1008.1 80.316C1009.94 81.9 1011.44 83.88 1012.58 86.256C1013.73 88.544 1014.3 91.36 1014.3 94.704C1014.3 99.456 1013.2 103.46 1011 106.716C1008.89 109.972 1006.03 112.48 1002.42 114.24C998.812 115.912 994.808 116.748 990.408 116.748H988.164C987.02 116.748 985.92 116.704 984.864 116.616C983.808 116.44 982.752 116.264 981.696 116.088C979.144 118.904 977.868 121.676 977.868 124.404C977.868 127.924 980.332 129.684 985.26 129.684H1000.04C1006.38 129.684 1011.35 131.092 1014.96 133.908C1018.57 136.724 1020.37 140.816 1020.37 146.184ZM990.408 107.376C993.84 107.376 996.876 106.276 999.516 104.076C1002.16 101.876 1003.48 98.532 1003.48 94.044C1003.48 89.644 1002.16 86.344 999.516 84.144C996.876 81.856 993.84 80.712 990.408 80.712H988.164C984.644 80.712 981.564 81.856 978.924 84.144C976.284 86.344 974.964 89.644 974.964 94.044C974.964 98.532 976.284 101.876 978.924 104.076C981.564 106.276 984.644 107.376 988.164 107.376H990.408ZM1048.16 56.688H1036.02V44.544H1048.16V56.688ZM1047.5 138H1036.68V72.66H1047.5V138ZM1106.74 135.624C1101.81 138.088 1096.58 139.32 1091.03 139.32C1086.28 139.32 1082.54 138.352 1079.81 136.416C1077.17 134.48 1075.28 131.884 1074.14 128.628C1073.08 125.372 1072.55 121.764 1072.55 117.804V82.164H1061.2V72.66H1072.55V54.444H1083.38V72.66H1104.76V82.164H1083.38V117.408C1083.38 121.984 1084.13 125.152 1085.62 126.912C1087.21 128.584 1089.63 129.42 1092.88 129.42C1094.47 129.42 1096.09 129.244 1097.77 128.892C1099.53 128.452 1101.42 127.748 1103.44 126.78L1106.74 135.624ZM1168.77 138.66C1164.72 138.66 1161.46 137.736 1159 135.888C1156.62 134.04 1154.95 131.752 1153.98 129.024C1149.67 132.808 1145.76 135.492 1142.24 137.076C1138.72 138.572 1135.2 139.32 1131.68 139.32C1125.96 139.32 1121.73 137.472 1119 133.776C1116.28 130.08 1114.91 125.548 1114.91 120.18C1114.91 116.572 1115.57 113.36 1116.89 110.544C1118.21 107.728 1120.46 105.528 1123.62 103.944C1126.79 102.272 1131.06 101.436 1136.43 101.436C1138.8 101.436 1141.4 101.612 1144.22 101.964C1147.03 102.228 1149.89 102.58 1152.8 103.02V94.176C1152.8 89.248 1151.7 85.904 1149.5 84.144C1147.38 82.296 1144.26 81.372 1140.12 81.372C1134.49 81.372 1128.2 82.912 1121.25 85.992L1117.82 77.016C1121.86 75.168 1125.74 73.76 1129.43 72.792C1133.13 71.824 1136.87 71.34 1140.65 71.34C1146.81 71.34 1151.52 72.352 1154.78 74.376C1158.03 76.4 1160.28 79.084 1161.51 82.428C1162.74 85.772 1163.36 89.424 1163.36 93.384V121.632C1163.36 123.656 1163.75 125.372 1164.54 126.78C1165.34 128.1 1166.92 128.76 1169.3 128.76H1170.75V138.66H1168.77ZM1125.6 120.048C1125.6 123.04 1126.31 125.46 1127.72 127.308C1129.12 129.156 1131.15 130.08 1133.79 130.08C1136.08 130.08 1138.72 129.42 1141.71 128.1C1144.7 126.692 1148.4 123.92 1152.8 119.784V111.468C1146.81 110.5 1141.53 110.016 1136.96 110.016C1132.91 110.016 1130 110.852 1128.24 112.524C1126.48 114.196 1125.6 116.704 1125.6 120.048ZM1185.95 122.16V40.32H1196.77V121.632C1196.77 124.008 1197.12 125.812 1197.83 127.044C1198.62 128.188 1200.16 128.76 1202.45 128.76H1204.56V138.66H1201.52C1195.72 138.66 1191.67 137.12 1189.38 134.04C1187.09 130.96 1185.95 127 1185.95 122.16Z" fill="white"/>
</svg>
